<svg xmlns="http://www.w3.org/2000/svg" width="1015.143" height="283.319" viewBox="0 0 1015.143 283.319">
  <g id="Anatomical_Models" data-name="Anatomical Models" transform="translate(-866.33 -651.693)">
    <g id="Mandible">
      <path id="Path_36" data-name="Path 36" d="M932.421,802.062l-13.4-26.416s-6.67-51.669-12.508-66.313-10.288,3.251-12.7,5.663-24.153-3.731-26.273,10.187,11.7,15.712,16.152,44.5-2.165,46.6,1.977,66.654,11.9,9.584,18.063,20.174,36.494,57.07,90.648,61.56,91.719-45.26,100.751-53.226,16.171-8.833,22.588-19.525-3.683-45.417.049-77.48,16.442-34.491,14.611-47.184-14.93-3.239-21.849-5.094-3.619-1.877-8.713-.8-9.919,7.1-10.9,9.115.04,2.681,0,9.651c-.018,3.192-2.854,24.69-7.8,41.453-5.688,19.27-10.422,31.836-13.505,32.372s-6.384-.974-11.394,0a25.629,25.629,0,0,0-9.517,4.558l-3.083,3.753s-4.781.327-7.238,1.712-3.619,4.856-3.619,4.856-4.328-1.441-7.1-1.028a8.54,8.54,0,0,0-4.692,2.68s-3.994-2.68-7.1-2.68-5.339,2.68-5.339,2.68a28.735,28.735,0,0,0-6.725-.982,23.2,23.2,0,0,0-6.291.982s-3.4-2.68-6.175-2.68-4.928,2.68-4.928,2.68-4.481-2.68-7.639-2.68a6.563,6.563,0,0,0-4.995,2.68s-3.164-3.261-6.131-3.931A8.134,8.134,0,0,0,961.9,821.2a34.1,34.1,0,0,1-2.842-2.591,20.647,20.647,0,0,0-2.547-2.279l-3.351-3.083L951.15,810.3l-3.217-3.887-6.836-2.547Z" fill="none" stroke="#707070" stroke-width="2"/>
      <path id="Path_37" data-name="Path 37" d="M934.561,802.929s-4.524,2.178-5.5,4.423-.838,6.635,0,9.953,3.351,3.318,3.351,3.318.5,5.4,2.145,7.641a4.1,4.1,0,0,0,4.423,1.34,14.539,14.539,0,0,0,3.485,4.021,5.119,5.119,0,0,0,3.753.67,6.868,6.868,0,0,0,2.279,2.279,7.308,7.308,0,0,0,3.217.67s.972,3.418,3.351,4.155,6.166-1.206,6.166-1.206.9,6.166,4.021,6.7,8.445-4.557,8.445-4.557,3.586,3.15,6.7,2.413,5.764-5.362,5.764-5.362,2.982,5.362,5.764,5.362,5.362-5.362,5.362-5.362,3.988,4.557,7.506,4.557,6.568-4.557,6.568-4.557,2.681,4.457,4.96,5.362,4.155-1.743,4.155-1.743,4.122,7,7.507,7.238,6.032-6.3,6.032-6.3a27.4,27.4,0,0,0,7.641,0,14.664,14.664,0,0,0,5.764-2.547s2.647,1.206,4.155,0,1.877-4.826,1.877-4.826,4.49-.2,6.836-2.279,2.547-6.032,2.547-6.032a5.188,5.188,0,0,0,4.826-.838c2.145-1.818,3.753-6.434,3.753-6.434s3.016-1.307,3.519-3.686-1.508-5.831-1.508-5.831l-3.217-3.485" fill="none" stroke="#707070" stroke-width="2"/>
      <path id="Path_38" data-name="Path 38" d="M1052.152,810.2a39.236,39.236,0,0,1,11.126.8c1.338.332,3.612.039,4.826.67,4.893,2.547,3.619,8.713,3.619,8.713" fill="none" stroke="#707070" stroke-width="2"/>
      <path id="Path_39" data-name="Path 39" d="M1046.12,815.247s10.59.45,13.4,2.729,3.351,9.919,3.351,9.919" fill="none" stroke="#707070" stroke-width="2"/>
      <path id="Path_40" data-name="Path 40" d="M1037.407,818.512a51.038,51.038,0,0,1,9.651.8c2.684.639,2.9,2.083,4.826,4.155,4.088,4.39,2.011,12.868,2.011,12.868" fill="none" stroke="#707070" stroke-width="2"/>
      <path id="Path_41" data-name="Path 41" d="M1035.263,822.265s6.066-1.776,8.981,2.949,2.681,15.951,2.681,15.951" fill="none" stroke="#707070" stroke-width="2"/>
      <path id="Path_42" data-name="Path 42" d="M1034.056,821.938v22.176" fill="none" stroke="#707070" stroke-width="2"/>
      <path id="Path_43" data-name="Path 43" d="M1022.662,824.142l-1.34,19.57" fill="none" stroke="#707070" stroke-width="2"/>
      <path id="Path_44" data-name="Path 44" d="M1011.269,824.008v14.611" fill="none" stroke="#707070" stroke-width="2"/>
      <path id="Path_45" data-name="Path 45" d="M997.6,824.142v15.281" fill="none" stroke="#707070" stroke-width="2"/>
      <path id="Path_46" data-name="Path 46" d="M986.068,824.142v15.281" fill="none" stroke="#707070" stroke-width="2"/>
      <path id="Path_47" data-name="Path 47" d="M974.138,824.142v17.426" fill="none" stroke="#707070" stroke-width="2"/>
      <path id="Path_48" data-name="Path 48" d="M961.672,821.938v17.083" fill="none" stroke="#707070" stroke-width="2"/>
      <path id="Path_49" data-name="Path 49" d="M958.857,819.316s-5.06.1-6.434,4.826,0,13.27,0,13.27" fill="none" stroke="#707070" stroke-width="2"/>
      <path id="Path_50" data-name="Path 50" d="M956.578,816.5s-6.166.268-9.115,2.815-.938,15.013-.938,15.013" fill="none" stroke="#707070" stroke-width="2"/>
      <path id="Path_51" data-name="Path 51" d="M952.557,813.15s-7.1,1.877-10.59,2.547-2.547,14.075-2.547,14.075" fill="none" stroke="#707070" stroke-width="2"/>
      <path id="Path_52" data-name="Path 52" d="M950.144,810.106s-9.886.105-14.343,2.776-3.485,7.909-3.485,7.909" fill="none" stroke="#707070" stroke-width="2"/>
      <path id="Path_53" data-name="Path 53" d="M947.329,806.314s-7.808.1-12.466,1.743-6.166,4.826-6.166,4.826" fill="none" stroke="#707070" stroke-width="2"/>
      <path id="Path_54" data-name="Path 54" d="M897.824,708.144s1.509,27.784-3.659,32.761S877.2,730.661,877.2,730.661" fill="none" stroke="#707070" stroke-width="2"/>
      <path id="Path_55" data-name="Path 55" d="M1109.2,715.73s-9.174,29.226-2.3,29.862,13.017-19.142,13.017-19.142" fill="none" stroke="#707070" stroke-width="2"/>
      <path id="Path_56" data-name="Path 56" d="M1108.418,720.626a9.667,9.667,0,0,0,5.228,1.34,10,10,0,0,0,4.826-2.547" fill="none" stroke="#707070" stroke-width="2"/>
      <path id="Path_57" data-name="Path 57" d="M1095.55,718.548s-1.34,29.993-4.289,53.082a300.66,300.66,0,0,1-7.506,39.275" fill="none" stroke="#707070" stroke-width="2"/>
      <path id="Path_58" data-name="Path 58" d="M1099.437,767.542s-4.792,22.251-5.63,39.543a111.133,111.133,0,0,0,2.279,29.624" fill="none" stroke="#707070" stroke-width="2"/>
      <path id="Path_59" data-name="Path 59" d="M1068.07,830.479,1067,834.2" fill="none" stroke="#707070" stroke-width="2"/>
      <path id="Path_60" data-name="Path 60" d="M1062.876,838.619l-1.508,3.753" fill="none" stroke="#707070" stroke-width="2"/>
      <path id="Path_61" data-name="Path 61" d="M1057.615,841.166a10.206,10.206,0,0,1-2.011,4.424,12.135,12.135,0,0,1-4.29,2.815" fill="none" stroke="#707070" stroke-width="2"/>
      <path id="Path_62" data-name="Path 62" d="M1046.929,844.785l-3.255,12.734" fill="none" stroke="#707070" stroke-width="2"/>
      <path id="Path_63" data-name="Path 63" d="M1037.407,848.4l3.988.8,3.351-2.011" fill="none" stroke="#707070" stroke-width="2"/>
      <path id="Path_64" data-name="Path 64" d="M1033.353,847.8a10.048,10.048,0,0,1,0,6.769c-1.34,3.468-5.362,7.1-5.362,7.1" fill="none" stroke="#707070" stroke-width="2"/>
      <path id="Path_65" data-name="Path 65" d="M1021.322,849.343s.545,3.117,1.709,4.155,2.949,0,2.949,0" fill="none" stroke="#707070" stroke-width="2"/>
      <path id="Path_66" data-name="Path 66" d="M1012.308,845.455a5.872,5.872,0,0,0,1.877,2.815,3.89,3.89,0,0,0,2.949,0" fill="none" stroke="#707070" stroke-width="2"/>
      <path id="Path_67" data-name="Path 67" d="M1000.646,845.455a5.515,5.515,0,0,0,3.083,1.206,7.723,7.723,0,0,0,3.485-1.206" fill="none" stroke="#707070" stroke-width="2"/>
      <path id="Path_68" data-name="Path 68" d="M1043.674,875.749s0,2.815.938,3.753,2.111.369,2.815,0,0-1.474,0-1.474" fill="none" stroke="#707070" stroke-width="2"/>
      <path id="Path_69" data-name="Path 69" d="M1003.93,880.014s-.04,5.694,1.381,9.027a7.924,7.924,0,0,0,4.3,4.3" fill="none" stroke="#707070" stroke-width="2"/>
      <path id="Path_70" data-name="Path 70" d="M993.078,881.339a19.625,19.625,0,0,1-2.265,7.7,18.267,18.267,0,0,1-5.663,5.437" fill="none" stroke="#707070" stroke-width="2"/>
      <path id="Path_71" data-name="Path 71" d="M951.812,865.255s-.017,2.549.841,3.4,2.592,0,2.592,0" fill="none" stroke="#707070" stroke-width="2"/>
      <path id="Path_72" data-name="Path 72" d="M974.138,846.662a7.722,7.722,0,0,1-8.527,2.719" fill="none" stroke="#707070" stroke-width="2"/>
      <path id="Path_73" data-name="Path 73" d="M961.672,847.2s-.052,4.468,1.325,6.713a5.3,5.3,0,0,0,4.182,2.265" fill="none" stroke="#707070" stroke-width="2"/>
      <path id="Path_74" data-name="Path 74" d="M950.144,842.372a17.348,17.348,0,0,0,2.746,6.834,19.808,19.808,0,0,0,5.925,4.879" fill="none" stroke="#707070" stroke-width="2"/>
      <path id="Path_75" data-name="Path 75" d="M939.306,836.34a15.37,15.37,0,0,0,0,5.721,6.493,6.493,0,0,0,2.606,3.485" fill="none" stroke="#707070" stroke-width="2"/>
      <path id="Path_76" data-name="Path 76" d="M931.107,829.772a7.022,7.022,0,0,0,1.568,3.751,7.832,7.832,0,0,0,3.834,1.743" fill="none" stroke="#707070" stroke-width="2"/>
      <path id="Path_77" data-name="Path 77" d="M908.977,716.857a374.633,374.633,0,0,0,1.046,42.693,340.2,340.2,0,0,0,6.622,40.951" fill="none" stroke="#707070" stroke-width="2"/>
      <path id="Path_78" data-name="Path 78" d="M906.711,761.467s1.307,17.469,0,30.5a74.8,74.8,0,0,1-5.228,21.608" fill="none" stroke="#707070" stroke-width="2"/>
      <path id="Path_79" data-name="Path 79" d="M882.489,724a21.747,21.747,0,0,0,5.054,0,12.273,12.273,0,0,0,4.008-1.394" fill="none" stroke="#707070" stroke-width="2"/>
    </g>
    <g id="Heart">
      <path id="Path_84" data-name="Path 84" d="M1249.994,659s5.934,23.933,0,50.032-20.615,57.25-20.615,57.25,11.1-17.022,30.628-18.553,17.6,1.739,17.6,1.739-6.365-22.06-3.493-36.225a21.333,21.333,0,0,1,15.314-16.845,50.924,50.924,0,0,0,0-10.72,27.024,27.024,0,0,0-2.68-8.423l-6.891,2.3V659s.383-5.481-14.548-6.247S1249.994,659,1249.994,659Z" fill="none" stroke="#707070" stroke-width="2"/>
      <path id="Path_82" data-name="Path 82" d="M1289.427,758.993c-9.093-1.819-9-15.41-25.651-11.868s-22.3,3.35-35.6,20.291-7.848,48.813,7.274,73.507,9.762,50.249,43.644,70.827,63.935,31.776,91.5,11.868,27.374-49.2,29.1-82.695-17.994-32.542-23.354-53.216-13.4-34.36-24.119-44.027-14.07-3.159-18.76,3.446,3.063,20.674,0,22.971-6.317-8.327-17.228-11.1S1298.519,760.812,1289.427,758.993Z" fill="none" stroke="#707070" stroke-width="2"/>
      <path id="Path_80" data-name="Path 80" d="M1287.512,768.564c-12.825-3.35-11.677-13.5-25.268-12.251s-20.291,5.838-27.948,19.525,1.531,52.45,11.868,65.85.191,34.839,28.331,53.981,51.589,28.618,73.506,26.8,15.027-18.472,9.954-37.9-20.387-13.782-30.628-42.879,5.934-47.473-3.828-65.85S1300.338,771.914,1287.512,768.564Z" fill="none" stroke="#707070" stroke-width="2"/>
      <path id="Path_81" data-name="Path 81" d="M1343.791,750.953c-4.116,0,1.244,10.241,0,19.525s-6.891,14.452-9.188,30.245-7.753,17.707,0,37.136,18.534,17.821,31.01,35.6c10.126,14.433,14.548,26.732,14.548,26.034,0-1.531,12.73-35.7,10.337-61.638s-12.73-26.895-19.908-42.113-6.5-18.434-10.337-25.268C1348.959,750.379,1347.906,750.953,1343.791,750.953Z" fill="none" stroke="#707070" stroke-width="2"/>
      <path id="Path_83" data-name="Path 83" d="M1238.891,848.771l-2.3,72.741s6.7,7.274,13.782,7.274,14.165-7.274,14.165-7.274V899.689" fill="none" stroke="#707070" stroke-width="2"/>
      <path id="Path_85" data-name="Path 85" d="M1250.568,708.457h-30.053s-5.36,5.456-5.36,10.72,5.36,10.337,5.36,10.337h22.971" fill="none" stroke="#707070" stroke-width="2"/>
      <path id="Path_86" data-name="Path 86" d="M1236.594,744.828H1215.92S1213,747.582,1213,749.5s2.924,2.988,2.924,2.988l17.611,2.3" fill="none" stroke="#707070" stroke-width="2"/>
      <path id="Path_87" data-name="Path 87" d="M1232.032,757.062l-21.6.549a14.342,14.342,0,0,0-1.464,5.613,12.987,12.987,0,0,0,1.464,5.43l15.924.488" fill="none" stroke="#707070" stroke-width="2"/>
      <path id="Path_88" data-name="Path 88" d="M1277.186,706.445l11.153-5.053s1.917-5.184,1.046-13.766-4.531-20.563-4.531-20.563a6.707,6.707,0,0,1,3.485-3.834c2.527-.958,6.622,0,6.622,0s6.97,21.434,12.372,19.168,3.66-23.351,3.66-23.351,3.354-1.917,5.925-1.917a11.659,11.659,0,0,1,5.4,1.917s-1.046,18.646,2.091,18.3,3.137-18.3,3.137-18.3a11.347,11.347,0,0,1,5.576-1.917,12.375,12.375,0,0,1,5.75,1.917s-4.356,23.7,2.091,28.578,14.986,23,14.986,23-34.155.871-43.913,1.917-1.7,8.887-6.1,20.04-17.6,26.139-17.6,26.139l-12.547-10.107" fill="none" stroke="#707070" stroke-width="2"/>
      <path id="Path_89" data-name="Path 89" d="M1355.951,710.714h24.919s5.533,4.313,5.925,9.41-4.356,10.978-4.356,10.978L1344.45,738.6" fill="none" stroke="#707070" stroke-width="2"/>
      <path id="Path_90" data-name="Path 90" d="M1356.866,736.112a20.465,20.465,0,0,1,0,5.054,37.84,37.84,0,0,1-1.394,5.925" fill="none" stroke="#707070" stroke-width="2"/>
      <path id="Path_91" data-name="Path 91" d="M1360.693,750.952h19.175a9.449,9.449,0,0,1,1.568,4.5,8.615,8.615,0,0,1-1.568,4.357l-13.592,1.568" fill="none" stroke="#707070" stroke-width="2"/>
      <path id="Path_92" data-name="Path 92" d="M1367.321,763.471l23.176,2.614a9.817,9.817,0,0,1,1.743,5.576c-.218,2.832-2.614,5.75-2.614,5.75h-15.858" fill="none" stroke="#707070" stroke-width="2"/>
      <path id="Path_93" data-name="Path 93" d="M1371.064,798.279s-3.679,5.794-3.046,6.448,5.576-3.834,5.576-3.834" fill="none" stroke="#707070" stroke-width="2"/>
      <path id="Path_94" data-name="Path 94" d="M1350.592,754.54s-1.394,3.877,0,5.925,5.576,2.265,5.576,2.265" fill="none" stroke="#707070" stroke-width="2"/>
      <path id="Path_95" data-name="Path 95" d="M1357.563,765.693s-2.527,5.1-1.046,8.016,6.97,3.659,6.97,3.659" fill="none" stroke="#707070" stroke-width="2"/>
      <path id="Path_96" data-name="Path 96" d="M1339.788,782.6s5.141.349,10.63,6.622,10.5,15.77,11.327,18.471-8.016-7.667-8.016-7.667-.915,3.267-3.311,3.834-6.273-.61-6.273-1.568,3.529-.958,5.4-2.265a4.744,4.744,0,0,0,2.091-2.962l-14.115-7.842" fill="none" stroke="#707070" stroke-width="2"/>
      <path id="Path_97" data-name="Path 97" d="M1342.054,793s-1.394,2.653-2.962,3.537a3.823,3.823,0,0,1-3.311,0" fill="none" stroke="#707070" stroke-width="2"/>
      <path id="Path_98" data-name="Path 98" d="M1326.37,794.965a15.546,15.546,0,0,1-6.273,3.489c-4.008,1.177-9.759.131-9.759,1.22s5.751,2.875,9.759,3.137a8.308,8.308,0,0,0,6.273-2.091" fill="none" stroke="#707070" stroke-width="2"/>
      <path id="Path_99" data-name="Path 99" d="M1297.3,769.178s2.156,8.364,8.857,10.456,17.949-2.091,17.949-2.091" fill="none" stroke="#707070" stroke-width="2"/>
      <path id="Path_100" data-name="Path 100" d="M1283.2,767.261s3.529,3.006.871,10.107-9.279,8.277-11.5,18.3,1.656,21,2.614,21.782-.784-11.283,1.22-18.646,3.18-10.02,6.8-10.8,3.093,5.271,7.667,7.667,10.63,2.919,10.63,1.917-6.84-2.222-10.63-5.925-3.18-5.489-2.962-10.978,3.834-10.978,3.834-10.978" fill="none" stroke="#707070" stroke-width="2"/>
      <path id="Path_101" data-name="Path 101" d="M1245.558,841.147s3.572-7.362,9.584-11.327,14.159-3.4,14.464-4.531-6.4-2.483-13.244,0-14.115,9.933-14.115,9.933" fill="none" stroke="#707070" stroke-width="2"/>
      <path id="Path_102" data-name="Path 102" d="M1232.861,777.368s12.187,3.729,23.023,0,20.32-14.915,20.32-14.915" fill="none" stroke="#707070" stroke-width="2"/>
    </g>
    <g id="Femur">
      <path id="Path_103" data-name="Path 103" d="M1516.743,783.209s-8.518-9.174-16.845-9.174-7.445,1.19-13.954,4.537-10.772,1.49-12.08,8.849,4.862,9.031,4.862,21.569-10.383,18.08-6.908,27.428,7.931,6.222,14.951,8.043,8.248-.091,13.129-.761,8.04,2.68,12.251,0,1.85-5.022,5.966-9.137,5-1.624,8.868-5.465,5.362-9.177,9.8-11.239,43.719-17.814,111.451-28.677,104.744-15.5,152.844-12.59,34.119,25.669,43.271,30.367,18.674,4.884,27.7,0,10.387-15.241,5.979-25.2-15.268-13.423-22.407-15.192-6.024-7.61-5.75-13.5,5.833-8.017,5.247-11.776-3.159-2.341-9.747-5.644-5.827-5.644-16.26-5.949-11.775,3.966-17.389,9.335S1718.74,756.086,1645,767.129,1516.743,783.209,1516.743,783.209Z" fill="none" stroke="#707070" stroke-width="2"/>
      <path id="Path_104" data-name="Path 104" d="M1792.806,777s2.99,5.981,11.652,5.774,7.424-5.052,7.424-5.052" fill="none" stroke="#707070" stroke-width="2"/>
      <path id="Path_105" data-name="Path 105" d="M1857.354,766.895a29.226,29.226,0,0,0-5.671,11.239c-2.062,7.347-.052,11.6-2.578,18.148s-7.527,8.043-7.527,8.043" fill="none" stroke="#707070" stroke-width="2"/>
      <path id="Path_106" data-name="Path 106" d="M1473.293,785.875s10.322-2.48,17.158-2.011,9.517,1.541,10.187,3.887-1.34.7-2.681,6.3,1.575,8.78-2.681,16.085-9.551,6.8-14.343,13.136-3.787,7.607-4.826,12.2a10.18,10.18,0,0,0,1.475,7.909" fill="none" stroke="#707070" stroke-width="2"/>
      <path id="Path_107" data-name="Path 107" d="M1851.768,748.534s1.586,3.738,1.133,6.343a6.645,6.645,0,0,1-2.945,4.078" fill="none" stroke="#707070" stroke-width="2"/>
    </g>
  </g>
</svg>
