<svg xmlns="http://www.w3.org/2000/svg" width="174.503" height="201.424" viewBox="0 0 174.503 201.424">
  <g id="Enclosure_Image" data-name="Enclosure Image" transform="translate(-810.135 -277.5)">
    <g id="Group_1" data-name="Group 1" transform="translate(812.164 279.732)">
      <path id="Path_108" data-name="Path 108" d="M0,88.585,72.45,0,165.6.608,96.8,88.585Z" transform="matrix(-0.602, -0.799, 0.799, -0.602, 99.658, 185.562)" fill="none" stroke="#707070" stroke-width="2"/>
      <g id="Ellipse_1" data-name="Ellipse 1" transform="translate(118.099 106.669) rotate(-177)" fill="#fff" stroke="#707070" stroke-width="2">
        <ellipse cx="34.104" cy="11.97" rx="34.104" ry="11.97" stroke="none"/>
        <ellipse cx="34.104" cy="11.97" rx="33.104" ry="10.97" fill="none"/>
      </g>
      <g id="Ellipse_2" data-name="Ellipse 2" transform="translate(128.528 119.725) rotate(-177)" fill="none" stroke="#707070" stroke-width="2">
        <ellipse cx="43.504" cy="23.715" rx="43.504" ry="23.715" stroke="none"/>
        <ellipse cx="43.504" cy="23.715" rx="42.504" ry="22.715" fill="none"/>
      </g>
      <g id="Ellipse_3" data-name="Ellipse 3" transform="translate(80.273 75.004)" fill="#fff" stroke="#707070" stroke-width="2">
        <ellipse cx="2.366" cy="1.892" rx="2.366" ry="1.892" stroke="none"/>
        <ellipse cx="2.366" cy="1.892" rx="1.366" ry="0.892" fill="none"/>
      </g>
      <g id="Ellipse_4" data-name="Ellipse 4" transform="translate(83.111 109.068)" fill="#fff" stroke="#707070" stroke-width="2">
        <circle cx="2.839" cy="2.839" r="2.839" stroke="none"/>
        <circle cx="2.839" cy="2.839" r="1.839" fill="none"/>
      </g>
      <g id="Ellipse_5" data-name="Ellipse 5" transform="translate(108.659 107.175)" fill="#fff" stroke="#707070" stroke-width="2">
        <circle cx="2.366" cy="2.366" r="2.366" stroke="none"/>
        <circle cx="2.366" cy="2.366" r="1.366" fill="none"/>
      </g>
      <g id="Ellipse_6" data-name="Ellipse 6" transform="translate(120.96 89.197)" fill="#fff" stroke="#707070" stroke-width="2">
        <ellipse cx="2.366" cy="2.839" rx="2.366" ry="2.839" stroke="none"/>
        <ellipse cx="2.366" cy="2.839" rx="1.366" ry="1.839" fill="none"/>
      </g>
      <g id="Ellipse_7" data-name="Ellipse 7" transform="translate(102.035 76.897)" fill="#fff" stroke="#707070" stroke-width="2">
        <circle cx="2.839" cy="2.839" r="2.839" stroke="none"/>
        <circle cx="2.839" cy="2.839" r="1.839" fill="none"/>
      </g>
      <g id="Ellipse_8" data-name="Ellipse 8" transform="translate(60.402 76.897)" fill="#fff" stroke="#707070" stroke-width="2">
        <circle cx="2.366" cy="2.366" r="2.366" stroke="none"/>
        <circle cx="2.366" cy="2.366" r="1.366" fill="none"/>
      </g>
      <g id="Ellipse_9" data-name="Ellipse 9" transform="translate(60.402 105.283)" fill="#fff" stroke="#707070" stroke-width="2">
        <ellipse cx="2.366" cy="1.892" rx="2.366" ry="1.892" stroke="none"/>
        <ellipse cx="2.366" cy="1.892" rx="1.366" ry="0.892" fill="none"/>
      </g>
      <g id="Ellipse_10" data-name="Ellipse 10" transform="translate(44.316 91.09)" fill="#fff" stroke="#707070" stroke-width="2">
        <ellipse cx="2.839" cy="2.366" rx="2.839" ry="2.366" stroke="none"/>
        <ellipse cx="2.839" cy="2.366" rx="1.839" ry="1.366" fill="none"/>
      </g>
    </g>
    <g id="Group_2" data-name="Group 2" transform="translate(833.72 378.801) rotate(51)">
      <g id="Ellipse_1-2" data-name="Ellipse 1" transform="translate(39.926 20.294) rotate(-177)" fill="#fff" stroke="#707070" stroke-width="2">
        <ellipse cx="17.808" cy="6.25" rx="17.808" ry="6.25" stroke="none"/>
        <ellipse cx="17.808" cy="6.25" rx="16.808" ry="5.25" fill="none"/>
      </g>
      <g id="Ellipse_2-2" data-name="Ellipse 2" transform="translate(45.372 27.111) rotate(-177)" fill="none" stroke="#707070" stroke-width="2">
        <ellipse cx="22.717" cy="12.384" rx="22.717" ry="12.384" stroke="none"/>
        <ellipse cx="22.717" cy="12.384" rx="21.717" ry="11.384" fill="none"/>
      </g>
      <g id="Ellipse_3-2" data-name="Ellipse 3" transform="translate(20.176 3.537)" fill="#fff" stroke="#707070" stroke-width="2">
        <ellipse cx="1.351" cy="1.182" rx="1.351" ry="1.182" stroke="none"/>
        <ellipse cx="1.351" cy="1.182" rx="0.351" ry="0.182" fill="none"/>
      </g>
      <g id="Ellipse_4-2" data-name="Ellipse 4" transform="translate(21.865 21.782)" fill="#fff" stroke="#707070" stroke-width="2">
        <circle cx="1.351" cy="1.351" r="1.351" stroke="none"/>
        <circle cx="1.351" cy="1.351" r="0.351" fill="none"/>
      </g>
      <g id="Ellipse_5-2" data-name="Ellipse 5" transform="translate(35.042 20.43)" fill="#fff" stroke="#707070" stroke-width="2">
        <circle cx="1.182" cy="1.182" r="1.182" stroke="none"/>
        <circle cx="1.182" cy="1.182" r="0.182" fill="none"/>
      </g>
      <g id="Ellipse_6-2" data-name="Ellipse 6" transform="translate(41.461 11.308)" fill="#fff" stroke="#707070" stroke-width="2">
        <ellipse cx="1.182" cy="1.52" rx="1.182" ry="1.52" stroke="none"/>
        <ellipse cx="1.182" cy="1.52" rx="0.182" ry="0.52" fill="none"/>
      </g>
      <g id="Ellipse_7-2" data-name="Ellipse 7" transform="translate(31.663 4.889)" fill="#fff" stroke="#707070" stroke-width="2">
        <circle cx="1.351" cy="1.351" r="1.351" stroke="none"/>
        <circle cx="1.351" cy="1.351" r="0.351" fill="none"/>
      </g>
      <g id="Ellipse_8-2" data-name="Ellipse 8" transform="translate(9.702 4.889)" fill="#fff" stroke="#707070" stroke-width="2">
        <ellipse cx="1.351" cy="1.182" rx="1.351" ry="1.182" stroke="none"/>
        <ellipse cx="1.351" cy="1.182" rx="0.351" ry="0.182" fill="none"/>
      </g>
      <g id="Ellipse_9-2" data-name="Ellipse 9" transform="translate(9.702 19.754)" fill="#fff" stroke="#707070" stroke-width="2">
        <ellipse cx="1.351" cy="1.014" rx="1.351" ry="1.014" stroke="none"/>
        <ellipse cx="1.351" cy="1.014" rx="0.351" ry="0.014" fill="none"/>
      </g>
      <g id="Ellipse_10-2" data-name="Ellipse 10" transform="translate(1.594 12.322)" fill="#fff" stroke="#707070" stroke-width="2">
        <ellipse cx="1.351" cy="1.182" rx="1.351" ry="1.182" stroke="none"/>
        <ellipse cx="1.351" cy="1.182" rx="0.351" ry="0.182" fill="none"/>
      </g>
    </g>
    <path id="Path_109" data-name="Path 109" d="M812.678,361.037v14.95l55.691,72.254,114.954,3.793V441.4" transform="translate(-0.028 -28.699)" fill="none" stroke="#707070" stroke-width="2"/>
    <path id="Path_110" data-name="Path 110" d="M812.678,384.53v51.644l55.479,65.654L983.3,504.776v-44.4" transform="translate(-0.028 -36.992)" fill="none" stroke="#707070" stroke-width="2"/>
    <path id="Path_111" data-name="Path 111" d="M10.02,56.5V0" transform="translate(858.159 407.691)" fill="none" stroke="#707070" stroke-width="2"/>
    <path id="Path_112" data-name="Path 112" d="M812.678,469.4l31.356,37.854s-.56,2.349,0,3.467,3.132,0,3.132,0-1.26,2.76-.727,3.666,3.163-.454,3.163-.454-1.288,2.414-.63,3.444,2.9,0,2.9,0-.937,2.512-.378,3.318,2.94-.63,2.94-.63-.62,2.521,0,3.4,3.234,0,3.234,0l10.44,11.572v8.133l-55.429-66.653Z" transform="translate(-0.028 -67.322)" fill="none" stroke="#707070" stroke-linecap="round" stroke-linejoin="round" stroke-width="2"/>
    <path id="Path_113" data-name="Path 113" d="M894.6,570.143l115.085,2.7v7.6L894.6,578.388" transform="translate(-26.619 -102.544)" fill="none" stroke="#707070" stroke-width="2"/>
    <g id="Ellipse_11" data-name="Ellipse 11" transform="translate(813.901 352.844)" fill="#707070" stroke="#707070" stroke-width="2">
      <circle cx="0.946" cy="0.946" r="0.946" stroke="none"/>
      <circle cx="0.946" cy="0.946" r="0.054" fill="none"/>
    </g>
    <g id="Ellipse_12" data-name="Ellipse 12" transform="translate(813.901 374.607)" fill="#707070" stroke="#707070" stroke-width="2">
      <circle cx="0.946" cy="0.946" r="0.946" stroke="none"/>
      <circle cx="0.946" cy="0.946" r="0.054" fill="none"/>
    </g>
    <g id="Ellipse_13" data-name="Ellipse 13" transform="translate(813.901 396.37)" fill="#707070" stroke="#707070" stroke-width="2">
      <ellipse cx="0.946" cy="1.419" rx="0.946" ry="1.419" stroke="none"/>
      <ellipse cx="0.946" cy="1.419" rx="0.054" ry="0.419" fill="none"/>
    </g>
    <g id="Ellipse_14" data-name="Ellipse 14" transform="translate(864.997 420.971)" fill="#707070" stroke="#707070" stroke-width="2">
      <ellipse cx="0.946" cy="1.419" rx="0.946" ry="1.419" stroke="none"/>
      <ellipse cx="0.946" cy="1.419" rx="0.054" ry="0.419" fill="none"/>
    </g>
    <g id="Ellipse_15" data-name="Ellipse 15" transform="translate(864.997 438.97)" fill="#707070" stroke="#707070" stroke-width="2">
      <ellipse cx="0.946" cy="1.419" rx="0.946" ry="1.419" stroke="none"/>
      <ellipse cx="0.946" cy="1.419" rx="0.054" ry="0.419" fill="none"/>
    </g>
    <g id="Ellipse_16" data-name="Ellipse 16" transform="translate(864.997 456.968)" fill="#707070" stroke="#707070" stroke-width="2">
      <ellipse cx="0.946" cy="1.419" rx="0.946" ry="1.419" stroke="none"/>
      <ellipse cx="0.946" cy="1.419" rx="0.054" ry="0.419" fill="none"/>
    </g>
    <g id="Ellipse_17" data-name="Ellipse 17" transform="translate(906.63 427.595)" fill="#fff" stroke="#707070" stroke-width="2">
      <ellipse cx="17.978" cy="16.559" rx="17.978" ry="16.559" stroke="none"/>
      <ellipse cx="17.978" cy="16.559" rx="16.978" ry="15.559" fill="none"/>
    </g>
    <g id="Ellipse_18" data-name="Ellipse 18" transform="translate(911.361 432.326)" fill="#fff" stroke="#707070" stroke-width="2">
      <ellipse cx="13.247" cy="11.828" rx="13.247" ry="11.828" stroke="none"/>
      <ellipse cx="13.247" cy="11.828" rx="12.247" ry="10.828" fill="none"/>
    </g>
    <g id="Rectangle_7" data-name="Rectangle 7" transform="translate(932.178 441.788)" fill="#fff" stroke="#707070" stroke-width="2">
      <rect width="13.247" height="5.677" stroke="none"/>
      <rect x="1" y="1" width="11.247" height="3.677" fill="none"/>
    </g>
  </g>
</svg>
