<svg xmlns="http://www.w3.org/2000/svg" width="650.309" height="155.37" viewBox="0 0 650.309 155.37">
  <g id="Implant_Project" data-name="Implant Project" transform="translate(-82.252 -45.937)">
    <g id="Implant">
      <path id="Path_1" data-name="Path 1" d="M94.806,62.468,83.252,69.943v32.848H87.1v6.117L83.252,111.4v5.663h5.663v5.663l-5.663,3.851v5.437h5.663v4.757L87.1,140.623v3.4h3.625v6.343l-1.812,1.359v2.945l5.89,2.718v6.8l-4.078,1.586v4.3l6.343,2.492v6.116l-4.3,3.625,2.039,4.078h6.117v4.078l14.951,9.061h14.951L146,190.461v-4.078h5.437l2.492-4.078-4.531-3.625v-6.116l6.8-2.492v-4.3h-3.625v-8.382l4.984-2.718v-2.945l-2.492-2.945v-3.4l6.117-3.172v-3.4l-2.492-2.039v-4.757l4.757-3.172v-3.851l-4.757-2.265v-5.663l4.757-2.492V111.4l-3.625-2.492v-6.117h3.625V69.943l-10.874-7.476Z" fill="none" stroke="#707070" stroke-width="2"/>
      <line id="Line_1" data-name="Line 1" x2="80" transform="translate(83.5 70.5)" fill="none" stroke="#707070" stroke-width="2"/>
      <line id="Line_2" data-name="Line 2" x2="80" transform="translate(83.5 76.5)" fill="none" stroke="#707070" stroke-width="2"/>
      <line id="Line_3" data-name="Line 3" y1="5" x2="80" transform="translate(83.5 92.5)" fill="none" stroke="#707070" stroke-width="2"/>
      <line id="Line_4" data-name="Line 4" y1="5" x2="80" transform="translate(83.5 90)" fill="none" stroke="#707070" stroke-width="2"/>
      <line id="Line_5" data-name="Line 5" y1="5" x2="80" transform="translate(83.5 87.5)" fill="none" stroke="#707070" stroke-width="2"/>
      <line id="Line_6" data-name="Line 6" y1="5" x2="80" transform="translate(83.5 85)" fill="none" stroke="#707070" stroke-width="2"/>
      <line id="Line_7" data-name="Line 7" y1="5" x2="80" transform="translate(83.252 82.5)" fill="none" stroke="#707070" stroke-width="2"/>
      <line id="Line_8" data-name="Line 8" y1="5" x2="80" transform="translate(83.5 80)" fill="none" stroke="#707070" stroke-width="2"/>
      <line id="Line_9" data-name="Line 9" y1="5" x2="80" transform="translate(83.5 77.5)" fill="none" stroke="#707070" stroke-width="2"/>
      <line id="Line_10" data-name="Line 10" y1="3.5" x2="53" transform="translate(83.5 76.5)" fill="none" stroke="#707070" stroke-width="2"/>
      <line id="Line_11" data-name="Line 11" y1="11" x2="76" transform="translate(87.5 97.5)" fill="none" stroke="#707070" stroke-width="2"/>
      <line id="Line_12" data-name="Line 12" y1="13" x2="76" transform="translate(83.5 103.5)" fill="none" stroke="#707070" stroke-width="2"/>
      <line id="Line_13" data-name="Line 13" y1="12" x2="70" transform="translate(89.5 110.5)" fill="none" stroke="#707070" stroke-width="2"/>
      <line id="Line_14" data-name="Line 14" y1="13.495" x2="70.151" transform="translate(88.349 117.5)" fill="none" stroke="#707070" stroke-width="2"/>
      <line id="Line_15" data-name="Line 15" y1="14.242" x2="70.075" transform="translate(88.425 123.5)" fill="none" stroke="#707070" stroke-width="2"/>
      <line id="Line_16" data-name="Line 16" y1="11.99" x2="68.075" transform="translate(90.425 132.5)" fill="none" stroke="#707070" stroke-width="2"/>
      <line id="Line_17" data-name="Line 17" y1="12.99" x2="68.075" transform="translate(90.425 137.5)" fill="none" stroke="#707070" stroke-width="2"/>
      <line id="Line_18" data-name="Line 18" y1="11.737" x2="59.151" transform="translate(95.349 145.5)" fill="none" stroke="#707070" stroke-width="2"/>
      <line id="Line_19" data-name="Line 19" y1="14.485" x2="60.151" transform="translate(95.349 149.5)" fill="none" stroke="#707070" stroke-width="2"/>
      <line id="Line_20" data-name="Line 20" y1="12.485" x2="50.575" transform="translate(95.925 160.5)" fill="none" stroke="#707070" stroke-width="2"/>
      <line id="Line_21" data-name="Line 21" y1="10.227" x2="44.575" transform="translate(95.925 169.5)" fill="none" stroke="#707070" stroke-width="2"/>
      <line id="Line_22" data-name="Line 22" y1="8.97" x2="34.151" transform="translate(100.349 177.5)" fill="none" stroke="#707070" stroke-width="2"/>
      <line id="Line_23" data-name="Line 23" y1="2.485" x2="26.151" transform="translate(100.349 188.5)" fill="none" stroke="#707070" stroke-width="2"/>
      <path id="Path_2" data-name="Path 2" d="M153.026,157.273l-6.343,2.265L126.5,188.988v4.3l20.183-2.945" fill="none" stroke="#707070" stroke-width="2"/>
    </g>
    <g id="Analog" transform="translate(-28 -0.309)">
      <path id="Path_3" data-name="Path 3" d="M233.9,76.718l5.228-5.751h40.6l4.879,5.751v33.458l-4.879,8.19v13.069l4.879,4.182v5.228a15.092,15.092,0,0,0-4.879,3.834,15.418,15.418,0,0,0-2.44,5.751v37.117a10.348,10.348,0,0,0,2.44,3.485,33.884,33.884,0,0,0,4.879,3.659v5.925H233.9v-5.925a15.336,15.336,0,0,0,5.228-3.659,13.189,13.189,0,0,0,2.44-5.576V150.429a13.918,13.918,0,0,0-2.44-5.751,15.669,15.669,0,0,0-5.228-3.834v-5.228l5.228-4.182V118.366l-5.228-8.19Z" fill="none" stroke="#707070" stroke-width="2"/>
      <line id="Line_24" data-name="Line 24" x2="51" transform="translate(233.5 76.5)" fill="none" stroke="#707070" stroke-width="2"/>
      <line id="Line_25" data-name="Line 25" y1="1" x2="51" transform="translate(233.5 109.5)" fill="none" stroke="#707070" stroke-width="2"/>
      <line id="Line_26" data-name="Line 26" x2="40" transform="translate(239.5 130.5)" fill="none" stroke="#707070" stroke-width="2"/>
      <line id="Line_27" data-name="Line 27" x2="51" transform="translate(233.5 135.5)" fill="none" stroke="#707070" stroke-width="2"/>
    </g>
    <g id="Abutment_1" data-name="Abutment 1" transform="translate(-71 14.215)">
      <path id="Path_4" data-name="Path 4" d="M408.389,72.265H368.972l-2.039,54.822s.057,6.626-1.133,10.647-3.625,5.437-3.625,5.437v3.4a9.971,9.971,0,0,1,6.8,1.812c2.945,2.322,4.984,7.476,4.984,7.476l2.718,29.45h23.333l2.945-29.45s1.416-5.154,4.3-7.476,7.249-1.812,7.249-1.812V128.446s-2.1-1.019-3.172-4.984-1.133-10.874-1.133-10.874Z" fill="none" stroke="#707070" stroke-width="2"/>
      <path id="Path_5" data-name="Path 5" d="M362.176,142.945s6.909,0,16.99-3.4,10.987-8.1,19.935-11.327,14.951,0,14.951,0" fill="none" stroke="#707070" stroke-width="2"/>
      <line id="Line_28" data-name="Line 28" x2="52" transform="translate(362.5 146.5)" fill="none" stroke="#707070" stroke-width="2"/>
    </g>
    <g id="Abutment_2" data-name="Abutment 2" transform="translate(-105.428 2.663)">
      <path id="Path_6" data-name="Path 6" d="M528.114,83.366l-4.078,2.945v4.531s2.492,9.741-7.929,18.123-23.107,0-23.107,0l-6.116,7.023V144.53s4.021.68,6.116,5.89,2.265,14.951,2.265,14.951l2.039,3.172v11.1H534.23v-11.1l2.718-3.172,2.945-14.951s-1.246-3.681,5.89-7.476,22.654-7.7,22.654-7.7v-2.718l-7.023-2.039-1.359-29-5.21-10.647Z" transform="translate(-3 18)" fill="none" stroke="#707070" stroke-width="2"/>
      <line id="Line_29" data-name="Line 29" y1="8" x2="81" transform="translate(484.5 153.5)" fill="none" stroke="#707070" stroke-width="2"/>
      <line id="Line_30" data-name="Line 30" x2="71" y2="22" transform="translate(489.5 127.5)" fill="none" stroke="#707070" stroke-width="2"/>
      <line id="Line_31" data-name="Line 31" x2="42" y2="4" transform="translate(483.5 134.5)" fill="none" stroke="#707070" stroke-width="2"/>
      <path id="Path_7" data-name="Path 7" d="M21.064,12.875-1.59-.717" transform="translate(533.5 141.5)" fill="none" stroke="#707070" stroke-width="2"/>
      <line id="Line_33" data-name="Line 33" x2="41" transform="translate(492.5 184.5)" fill="none" stroke="#707070" stroke-width="2"/>
    </g>
    <g id="Coping" transform="translate(-121.428 2.937)">
      <g id="Rectangle_1" data-name="Rectangle 1" transform="translate(637 44)" fill="#fff" stroke="#707070" stroke-width="2">
        <rect width="24" height="12" stroke="none"/>
        <rect x="1" y="1" width="22" height="10" fill="none"/>
      </g>
      <g id="Rectangle_2" data-name="Rectangle 2" transform="translate(637 63)" fill="#fff" stroke="#707070" stroke-width="2">
        <rect width="24" height="12" stroke="none"/>
        <rect x="1" y="1" width="22" height="10" fill="none"/>
      </g>
      <g id="Rectangle_3" data-name="Rectangle 3" transform="translate(637 83)" fill="#fff" stroke="#707070" stroke-width="2">
        <rect width="24" height="12" stroke="none"/>
        <rect x="1" y="1" width="22" height="10" fill="none"/>
      </g>
      <g id="Rectangle_4" data-name="Rectangle 4" transform="translate(637 103)" fill="#fff" stroke="#707070" stroke-width="2">
        <rect width="24" height="12" stroke="none"/>
        <rect x="1" y="1" width="22" height="10" fill="none"/>
      </g>
      <g id="Rectangle_5" data-name="Rectangle 5" transform="translate(637 123)" fill="#fff" stroke="#707070" stroke-width="2">
        <rect width="24" height="12" stroke="none"/>
        <rect x="1" y="1" width="22" height="10" fill="none"/>
      </g>
      <g id="Rectangle_6" data-name="Rectangle 6" transform="translate(637 143)" fill="#fff" stroke="#707070" stroke-width="2">
        <rect width="24" height="12" stroke="none"/>
        <rect x="1" y="1" width="22" height="10" fill="none"/>
      </g>
      <path id="Path_8" data-name="Path 8" d="M669.925,44H627.11V55.785h2.945V63.26H627.11V75.04h2.945v7.929H627.11v11.78h2.945v8.382H627.11v12.006h2.945v7.7H627.11v11.78h2.945V143H627.11v12.006h2.945v7.7H627.11v20.615h-3.4v3.851l2.265,3.4h5.437l1.586,6.8h30.356l2.265-6.8h4.3l2.945-3.4v-3.851h-2.945V162.71h-3.172v-7.7h3.172V143h-3.172v-8.382h3.172v-11.78h-3.172v-7.7h3.172V103.131h-3.172V94.749h3.172V82.969h-3.172V75.04h3.172V63.26h-3.172V55.785h3.172Z" fill="none" stroke="#707070" stroke-width="2"/>
      <line id="Line_34" data-name="Line 34" x2="42" transform="translate(627.5 55.5)" fill="none" stroke="#707070" stroke-width="2"/>
      <line id="Line_35" data-name="Line 35" x2="42" transform="translate(627.5 63.5)" fill="none" stroke="#707070" stroke-width="2"/>
      <line id="Line_36" data-name="Line 36" x2="42" transform="translate(627.5 74.5)" fill="none" stroke="#707070" stroke-width="2"/>
      <line id="Line_37" data-name="Line 37" x2="42" transform="translate(627.5 83.5)" fill="none" stroke="#707070" stroke-width="2"/>
      <line id="Line_38" data-name="Line 38" x2="42" transform="translate(627.5 94.5)" fill="none" stroke="#707070" stroke-width="2"/>
      <line id="Line_39" data-name="Line 39" x2="42" transform="translate(627.5 103.5)" fill="none" stroke="#707070" stroke-width="2"/>
      <line id="Line_40" data-name="Line 40" x2="42" transform="translate(627.5 114.5)" fill="none" stroke="#707070" stroke-width="2"/>
      <line id="Line_41" data-name="Line 41" x2="42" transform="translate(627.5 123.5)" fill="none" stroke="#707070" stroke-width="2"/>
      <line id="Line_42" data-name="Line 42" x2="42" transform="translate(627.5 134.5)" fill="none" stroke="#707070" stroke-width="2"/>
      <line id="Line_43" data-name="Line 43" x2="42" transform="translate(627.5 143.5)" fill="none" stroke="#707070" stroke-width="2"/>
      <line id="Line_44" data-name="Line 44" x2="42" transform="translate(627.5 154.5)" fill="none" stroke="#707070" stroke-width="2"/>
      <line id="Line_45" data-name="Line 45" x2="36" transform="translate(630.5 162.5)" fill="none" stroke="#707070" stroke-width="2"/>
      <line id="Line_46" data-name="Line 46" x2="44" transform="translate(626.5 183.5)" fill="none" stroke="#707070" stroke-width="2"/>
      <line id="Line_47" data-name="Line 47" x2="49" transform="translate(623.5 187.5)" fill="none" stroke="#707070" stroke-width="2"/>
      <line id="Line_48" data-name="Line 48" x2="36" transform="translate(630.5 190.5)" fill="none" stroke="#707070" stroke-width="2"/>
    </g>
    <g id="Healing" transform="translate(-140.907 7.409)">
      <path id="Path_9" data-name="Path 9" d="M734.545,94.692c1.045-3.851,21.068-8.835,21.068-8.835h19.935s18.942,4.461,20.859,8.835-2.884,4.243-4.531,10.473.179,9.022-2.091,14.446-8.072,9.34-8.072,9.34l-4.806,20.79-4.3,1.359v12.006l1.251,1-.714.793,1.9,1.348-1.9,1.428,1.428,1.9-1.965,1.9,1.965,1.983-1.965,1.9,1.965,1.983-2.459,2.776v10.153l-1.666,2.617h-9.518l-1.348-1.9V180.763l-2.221-2.221,1.348-1.19-2.221-2.538,2.221-1.348-2.221-1.983,2.221-1.9-2.221-1.9,2.221-1.428-1.348-1.348,2.221-2.935V151.1l-5.394-1.359-5.349-21.4a19.28,19.28,0,0,1-7.145-8.73c-2.527-6.034-1.133-8.865-2.962-15.4S733.5,98.543,734.545,94.692Z" fill="none" stroke="#707070" stroke-width="2"/>
      <line id="Line_49" data-name="Line 49" y1="1" x2="16" transform="translate(757.5 163.5)" fill="none" stroke="#707070" stroke-width="2"/>
      <line id="Line_50" data-name="Line 50" y1="1" x2="16" transform="translate(757.5 167.5)" fill="none" stroke="#707070" stroke-width="2"/>
      <line id="Line_51" data-name="Line 51" y1="1" x2="15" transform="translate(758.5 165.5)" fill="none" stroke="#707070" stroke-width="2"/>
      <line id="Line_52" data-name="Line 52" y1="1" x2="17" transform="translate(757.5 169.5)" fill="none" stroke="#707070" stroke-width="2"/>
      <line id="Line_53" data-name="Line 53" y1="1" x2="15" transform="translate(757.5 171.5)" fill="none" stroke="#707070" stroke-width="2"/>
      <line id="Line_54" data-name="Line 54" y1="1" x2="17.5" transform="translate(757 173.5)" fill="none" stroke="#707070" stroke-width="2"/>
      <line id="Line_55" data-name="Line 55" y1="1" x2="15" transform="translate(757.5 175.5)" fill="none" stroke="#707070" stroke-width="2"/>
      <line id="Line_56" data-name="Line 56" y1="1" x2="16.5" transform="translate(758 177.5)" fill="none" stroke="#707070" stroke-width="2"/>
      <line id="Line_57" data-name="Line 57" y1="1" x2="13.5" transform="translate(759 179.5)" fill="none" stroke="#707070" stroke-width="2"/>
      <path id="Path_10" data-name="Path 10" d="M748.949,128.585a102.909,102.909,0,0,0,18,2.172,69.708,69.708,0,0,0,15.019-1.767" fill="none" stroke="#707070" stroke-width="2"/>
      <path id="Path_11" data-name="Path 11" d="M750.735,130.239a231.176,231.176,0,0,0,31.971,2.624,237.376,237.376,0,0,0,30.2-2.106" transform="translate(-16.215 -34.51)" fill="none" stroke="#707070" stroke-width="2"/>
    </g>
    <g id="Screw" transform="translate(-168.555 10.532)">
      <path id="Path_12" data-name="Path 12" d="M871.3,95l-4.289,4.021v4.96h3.083v6.3l5.228,7.238V158.14l-2.949,2.145,2.949,1.743-2.949,2.681,2.949,2.145-2.949,2.547,2.949,2.547-2.949,3.485,2.949,1.743-2.949,2.547,4.021,3.485v4.826l2.279,1.743h9.651l2.547-1.743v-4.826l.938-3.485,3.351-1.206-3.351-3.083,3.351-2.547-3.351-2.547,3.351-2.547-3.351-3.083,3.351-2.681-3.351-1.743.8-2.145-.8-.938V117.524l4.96-7.238v-6.3h3.351v-4.96L895.156,95Z" fill="none" stroke="#707070" stroke-width="2"/>
      <line id="Line_58" data-name="Line 58" y1="1" x2="17" transform="translate(875.5 157.5)" fill="none" stroke="#707070" stroke-width="2"/>
      <line id="Line_59" data-name="Line 59" y1="1" x2="17" transform="translate(874.5 160.5)" fill="none" stroke="#707070" stroke-width="2"/>
      <line id="Line_60" data-name="Line 60" y1="1" x2="21" transform="translate(872.5 163.5)" fill="none" stroke="#707070" stroke-width="2"/>
      <line id="Line_61" data-name="Line 61" y1="1" x2="19" transform="translate(874.5 166.5)" fill="none" stroke="#707070" stroke-width="2"/>
      <line id="Line_62" data-name="Line 62" y1="1" x2="19" transform="translate(873.5 169.5)" fill="none" stroke="#707070" stroke-width="2"/>
      <line id="Line_63" data-name="Line 63" y1="1" x2="20" transform="translate(874.5 172.5)" fill="none" stroke="#707070" stroke-width="2"/>
      <line id="Line_64" data-name="Line 64" y1="1" x2="17" transform="translate(874.5 175.5)" fill="none" stroke="#707070" stroke-width="2"/>
      <line id="Line_65" data-name="Line 65" y1="1" x2="22" transform="translate(872.5 178.5)" fill="none" stroke="#707070" stroke-width="2"/>
      <line id="Line_66" data-name="Line 66" y1="1" x2="16" transform="translate(875.5 181.5)" fill="none" stroke="#707070" stroke-width="2"/>
      <line id="Line_67" data-name="Line 67" x2="34" transform="translate(866.5 103.5)" fill="none" stroke="#707070" stroke-width="2"/>
      <line id="Line_68" data-name="Line 68" x2="26" transform="translate(870.5 110.5)" fill="none" stroke="#707070" stroke-width="2"/>
      <line id="Line_69" data-name="Line 69" x2="33" transform="translate(867.5 99.5)" fill="none" stroke="#707070" stroke-width="2"/>
    </g>
  </g>
</svg>
