<svg xmlns="http://www.w3.org/2000/svg" width="198.179" height="222.385" viewBox="0 0 198.179 222.385">
  <g id="Injection_Mold_Image" data-name="Injection Mold Image" transform="translate(-795.122 -1315.153)">
    <g id="Mold_1" data-name="Mold 1" transform="translate(795.776 1315.153)">
      <g id="Path_117" data-name="Path 117" transform="matrix(0.883, -0.469, 0.469, 0.883, 0, 70.457)" fill="#fff">
        <path d="M 1.126201510429382 57.51916122436523 L 1.002210140228271 0.999995231628418 L 149.0774383544922 0.999995231628418 L 149.0774383544922 57.44884872436523 L 1.126201510429382 57.51916122436523 Z" stroke="none"/>
        <path d="M 2.00439453125 2.000003814697266 L 2.1240234375 56.5186767578125 L 148.0774230957031 56.44930648803711 L 148.0774230957031 2.000003814697266 L 2.00439453125 2.000003814697266 M 0 3.814697265625e-06 L 150.0774230957031 3.814697265625e-06 L 150.0774230957031 58.44835662841797 L 0.1284027099609375 58.51962661743164 L 0 3.814697265625e-06 Z" stroke="none" fill="#707070"/>
      </g>
      <path id="Path_116" data-name="Path 116" d="M796.394,1426.381l.383,23.088,26.973,50.718,131.864-68.271v-24.241" transform="translate(-796.048 -1355.864)" fill="none" stroke="#707070" stroke-width="2"/>
      <line id="Line_88" data-name="Line 88" y2="22.4" transform="translate(27.845 121.712)" fill="none" stroke="#707070" stroke-width="2"/>
      <path id="Path_118" data-name="Path 118" d="M857.477,1416.144s-1.884,3.071-.349,5.284,4.824.715,4.824.715l59.926-29.974,14.991.721,12.537-6.319-13.454-21.812-9.989,5.81-8.052,13.454Z" transform="translate(-822.506 -1336.979)" fill="none" stroke="#707070" stroke-width="2"/>
      <path id="Path_119" data-name="Path 119" d="M980.643,1375.483s-.235,8.233,2.509,13.721a20.374,20.374,0,0,0,8.468,8.233" transform="translate(-877.117 -1341.699)" fill="none" stroke="#707070" stroke-width="2"/>
      <path id="Path_120" data-name="Path 120" d="M966.361,1399.145s-.137,3.528.863,5.567a5.262,5.262,0,0,0,3.136,2.587" transform="translate(-870.832 -1352.11)" fill="none" stroke="#707070" stroke-width="2"/>
      <path id="Path_121" data-name="Path 121" d="M997.815,1364.757s-2.019,8.9,1.333,14.317,12.074,7.37,12.074,7.37" transform="translate(-884.41 -1336.979)" fill="none" stroke="#707070" stroke-width="2"/>
      <g id="Ellipse_19" data-name="Ellipse 19" transform="translate(124.443 8.874)" fill="#fff" stroke="#707070" stroke-width="2">
        <ellipse cx="3.92" cy="3.64" rx="3.92" ry="3.64" stroke="none"/>
        <ellipse cx="3.92" cy="3.64" rx="2.92" ry="2.64" fill="none"/>
      </g>
      <g id="Ellipse_20" data-name="Ellipse 20" transform="translate(27.565 104.632)" fill="#fff" stroke="#707070" stroke-width="2">
        <circle cx="3.92" cy="3.92" r="3.92" stroke="none"/>
        <circle cx="3.92" cy="3.92" r="2.92" fill="none"/>
      </g>
      <g id="Ellipse_21" data-name="Ellipse 21" transform="translate(144.043 44.154)" fill="#fff" stroke="#707070" stroke-width="2">
        <ellipse cx="3.92" cy="3.64" rx="3.92" ry="3.64" stroke="none"/>
        <ellipse cx="3.92" cy="3.64" rx="2.92" ry="2.64" fill="none"/>
      </g>
      <g id="Ellipse_22" data-name="Ellipse 22" transform="translate(8.525 69.353)" fill="#fff" stroke="#707070" stroke-width="2">
        <ellipse cx="3.92" cy="3.64" rx="3.92" ry="3.64" stroke="none"/>
        <ellipse cx="3.92" cy="3.64" rx="2.92" ry="2.64" fill="none"/>
      </g>
    </g>
    <g id="Mold_2" data-name="Mold 2" transform="translate(832.736 1391.872)">
      <g id="Path_117-2" data-name="Path 117" transform="matrix(0.883, -0.469, 0.469, 0.883, 0, 70.457)" fill="#fff">
        <path d="M 1.126201510429382 57.51916122436523 L 1.002210140228271 0.999995231628418 L 149.0774383544922 0.999995231628418 L 149.0774383544922 57.44884872436523 L 1.126201510429382 57.51916122436523 Z" stroke="none"/>
        <path d="M 2.00439453125 2.000003814697266 L 2.1240234375 56.5186767578125 L 148.0774230957031 56.44930648803711 L 148.0774230957031 2.000003814697266 L 2.00439453125 2.000003814697266 M 0 3.814697265625e-06 L 150.0774230957031 3.814697265625e-06 L 150.0774230957031 58.44835662841797 L 0.1284027099609375 58.51962661743164 L 0 3.814697265625e-06 Z" stroke="none" fill="#707070"/>
      </g>
      <path id="Path_116-2" data-name="Path 116" d="M796.394,1426.381l.383,23.088,26.973,50.718,131.864-68.271v-24.241" transform="translate(-796.048 -1355.864)" fill="none" stroke="#707070" stroke-width="2"/>
      <line id="Line_88-2" data-name="Line 88" y2="22.4" transform="translate(27.845 121.712)" fill="none" stroke="#707070" stroke-width="2"/>
      <path id="Path_118-2" data-name="Path 118" d="M857.477,1416.144s-1.884,3.071-.349,5.284,4.824.715,4.824.715l59.926-29.974,14.991.721,12.537-6.319-13.454-21.812-9.989,5.81-8.052,13.454Z" transform="translate(-822.506 -1336.979)" fill="none" stroke="#707070" stroke-width="2"/>
      <path id="Path_119-2" data-name="Path 119" d="M980.643,1375.483s-.235,8.233,2.509,13.721a20.374,20.374,0,0,0,8.468,8.233" transform="translate(-877.117 -1341.699)" fill="none" stroke="#707070" stroke-width="2"/>
      <path id="Path_120-2" data-name="Path 120" d="M966.361,1399.145s-.137,3.528.863,5.567a5.262,5.262,0,0,0,3.136,2.587" transform="translate(-870.832 -1352.11)" fill="none" stroke="#707070" stroke-width="2"/>
      <path id="Path_121-2" data-name="Path 121" d="M997.815,1364.757s-2.019,8.9,1.333,14.317,12.074,7.37,12.074,7.37" transform="translate(-884.41 -1336.979)" fill="none" stroke="#707070" stroke-width="2"/>
    </g>
    <g id="Pin" transform="translate(838.461 1454.505)">
      <path id="Path_122" data-name="Path 122" d="M872.595,1567.06v8.521a2.679,2.679,0,0,0,2.737,1.876,2.814,2.814,0,0,0,2.938-1.876l.2-8.314Z" transform="translate(-872.262 -1565.38)" fill="#fff" stroke="#707070" stroke-width="2"/>
      <g id="Path_123" data-name="Path 123" fill="#fff">
        <path d="M 3.255029678344727 2.359941005706787 C 1.923603773117065 2.359941005706787 1.147377848625183 1.898091912269592 1.01106071472168 1.679971098899841 C 1.147377848625183 1.46185028553009 1.923603773117065 1.000001072883606 3.255029678344727 1.000001072883606 C 4.586455821990967 1.000001072883606 5.36268138885498 1.46185028553009 5.498998641967773 1.679971098899841 C 5.36268138885498 1.898091912269592 4.586455821990967 2.359941005706787 3.255029678344727 2.359941005706787 Z" stroke="none"/>
        <path d="M 3.255029678344727 1.192092895507812e-06 C 5.052729606628418 1.192092895507812e-06 6.510059833526611 0.7521510124206543 6.510059833526611 1.679971098899841 C 6.510059833526611 2.607791185379028 5.052729606628418 3.359941005706787 3.255029678344727 3.359941005706787 C 1.457329750061035 3.359941005706787 -4.76837158203125e-07 2.607791185379028 -4.76837158203125e-07 1.679971098899841 C -4.76837158203125e-07 0.7521510124206543 1.457329750061035 1.192092895507812e-06 3.255029678344727 1.192092895507812e-06 Z" stroke="none" fill="#707070"/>
      </g>
    </g>
    <g id="Pin-2" data-name="Pin" transform="translate(959.419 1391.872)">
      <path id="Path_122-2" data-name="Path 122" d="M872.595,1567.06v8.521a2.679,2.679,0,0,0,2.737,1.876,2.814,2.814,0,0,0,2.938-1.876l.2-8.314Z" transform="translate(-872.262 -1565.38)" fill="#fff" stroke="#707070" stroke-width="2"/>
      <g id="Path_123-2" data-name="Path 123" transform="translate(0 0)" fill="#fff">
        <path d="M 3.255029678344727 2.359941005706787 C 1.923603773117065 2.359941005706787 1.147377848625183 1.898091912269592 1.01106071472168 1.679971098899841 C 1.147377848625183 1.46185028553009 1.923603773117065 1.000001072883606 3.255029678344727 1.000001072883606 C 4.586455821990967 1.000001072883606 5.36268138885498 1.46185028553009 5.498998641967773 1.679971098899841 C 5.36268138885498 1.898091912269592 4.586455821990967 2.359941005706787 3.255029678344727 2.359941005706787 Z" stroke="none"/>
        <path d="M 3.255029678344727 1.192092895507812e-06 C 5.052729606628418 1.192092895507812e-06 6.510059833526611 0.7521510124206543 6.510059833526611 1.679971098899841 C 6.510059833526611 2.607791185379028 5.052729606628418 3.359941005706787 3.255029678344727 3.359941005706787 C 1.457329750061035 3.359941005706787 -4.76837158203125e-07 2.607791185379028 -4.76837158203125e-07 1.679971098899841 C -4.76837158203125e-07 0.7521510124206543 1.457329750061035 1.192092895507812e-06 3.255029678344727 1.192092895507812e-06 Z" stroke="none" fill="#707070"/>
      </g>
    </g>
    <g id="Pin-3" data-name="Pin" transform="translate(979.578 1431.071)">
      <path id="Path_122-3" data-name="Path 122" d="M872.595,1567.06v8.521a2.679,2.679,0,0,0,2.737,1.876,2.814,2.814,0,0,0,2.938-1.876l.2-8.314Z" transform="translate(-872.262 -1565.38)" fill="#fff" stroke="#707070" stroke-width="2"/>
      <g id="Path_123-3" data-name="Path 123" transform="translate(0 0)" fill="#fff">
        <path d="M 3.255029678344727 2.359941005706787 C 1.923603773117065 2.359941005706787 1.147377848625183 1.898091912269592 1.01106071472168 1.679971098899841 C 1.147377848625183 1.46185028553009 1.923603773117065 1.000001072883606 3.255029678344727 1.000001072883606 C 4.586455821990967 1.000001072883606 5.36268138885498 1.46185028553009 5.498998641967773 1.679971098899841 C 5.36268138885498 1.898091912269592 4.586455821990967 2.359941005706787 3.255029678344727 2.359941005706787 Z" stroke="none"/>
        <path d="M 3.255029678344727 1.192092895507812e-06 C 5.052729606628418 1.192092895507812e-06 6.510059833526611 0.7521510124206543 6.510059833526611 1.679971098899841 C 6.510059833526611 2.607791185379028 5.052729606628418 3.359941005706787 3.255029678344727 3.359941005706787 C 1.457329750061035 3.359941005706787 -4.76837158203125e-07 2.607791185379028 -4.76837158203125e-07 1.679971098899841 C -4.76837158203125e-07 0.7521510124206543 1.457329750061035 1.192092895507812e-06 3.255029678344727 1.192092895507812e-06 Z" stroke="none" fill="#707070"/>
      </g>
    </g>
    <g id="Pin-4" data-name="Pin" transform="translate(859.18 1494.91)">
      <path id="Path_122-4" data-name="Path 122" d="M872.595,1567.06v8.521a2.679,2.679,0,0,0,2.737,1.876,2.814,2.814,0,0,0,2.938-1.876l.2-8.314Z" transform="translate(-872.262 -1565.38)" fill="#fff" stroke="#707070" stroke-width="2"/>
      <g id="Path_123-4" data-name="Path 123" fill="#fff">
        <path d="M 3.255029678344727 2.359941005706787 C 1.923603773117065 2.359941005706787 1.147377848625183 1.898091912269592 1.01106071472168 1.679971098899841 C 1.147377848625183 1.46185028553009 1.923603773117065 1.000001072883606 3.255029678344727 1.000001072883606 C 4.586455821990967 1.000001072883606 5.36268138885498 1.46185028553009 5.498998641967773 1.679971098899841 C 5.36268138885498 1.898091912269592 4.586455821990967 2.359941005706787 3.255029678344727 2.359941005706787 Z" stroke="none"/>
        <path d="M 3.255029678344727 1.192092895507812e-06 C 5.052729606628418 1.192092895507812e-06 6.510059833526611 0.7521510124206543 6.510059833526611 1.679971098899841 C 6.510059833526611 2.607791185379028 5.052729606628418 3.359941005706787 3.255029678344727 3.359941005706787 C 1.457329750061035 3.359941005706787 -4.76837158203125e-07 2.607791185379028 -4.76837158203125e-07 1.679971098899841 C -4.76837158203125e-07 0.7521510124206543 1.457329750061035 1.192092895507812e-06 3.255029678344727 1.192092895507812e-06 Z" stroke="none" fill="#707070"/>
      </g>
    </g>
  </g>
</svg>
