<svg xmlns="http://www.w3.org/2000/svg" width="400" height="45.715" viewBox="0 0 369.934 29.715">
  <g id="Krista_Camero_Edit" data-name="Krista Camero Edit" transform="translate(-41.366 -75.606)">
    <g id="K">
      <path id="Path_1" data-name="Path 1" d="M41.866,76.008V104.97" fill="none" stroke="#7a595e" stroke-width="1"/>
      <path id="Path_2" data-name="Path 2" d="M44.55,76.008V104.97" fill="none" stroke="#7a595e" stroke-width="1"/>
      <path id="Path_3" data-name="Path 3" d="M46.9,76.008v29.009" fill="none" stroke="#7a595e" stroke-width="1"/>
      <path id="Path_4" data-name="Path 4" d="M49.542,76.008v28.915" fill="none" stroke="#7a595e" stroke-width="1"/>
      <path id="Path_5" data-name="Path 5" d="M52.462,76.008l-2.873,7.3" fill="none" stroke="#7a595e" stroke-width="1"/>
      <path id="Path_6" data-name="Path 6" d="M55.24,76.008l-5.7,14.316,5.7,14.646" fill="none" stroke="#7a595e" stroke-width="1"/>
      <path id="Path_7" data-name="Path 7" d="M57.924,76.008,52.132,90.654l5.792,14.316" fill="none" stroke="#7a595e" stroke-width="1"/>
      <path id="Path_8" data-name="Path 8" d="M49.495,97.53l2.967,7.582" fill="none" stroke="#7a595e" stroke-width="1"/>
      <path id="Path_9" data-name="Path 9" d="M60.75,76.008l-5.887,14.6,5.887,14.41" fill="none" stroke="#7a595e" stroke-width="1"/>
      <path id="Path_10" data-name="Path 10" d="M63.434,76.008,57.642,90.56l5.792,14.41" fill="none" stroke="#7a595e" stroke-width="1"/>
    </g>
    <g id="R">
      <path id="Path_11" data-name="Path 11" d="M86.832,81.616s-6.267-.389-9.817,2.355-4.021,7.571-4.021,7.571l-.145,13.44" fill="none" stroke="#707070" stroke-width="1"/>
      <path id="Path_12" data-name="Path 12" d="M86.832,84.224s-4.8-.589-7.716,1.521-3.188,4.311-3.659,6.195v13.041" fill="none" stroke="#707070" stroke-width="1"/>
      <path id="Path_13" data-name="Path 13" d="M86.832,86.687s-3.9-.507-6.158.978-2.681,4.963-2.681,4.963v12.353" fill="none" stroke="#707070" stroke-width="1"/>
      <path id="Path_14" data-name="Path 14" d="M86.832,89.187s-3.84-.217-5,.688a5.268,5.268,0,0,0-1.413,3.043v12.1" fill="none" stroke="#707070" stroke-width="1"/>
      <path id="Path_15" data-name="Path 15" d="M86.832,91.686s-2.572-.435-3.441.507-.362,12.788-.362,12.788" fill="none" stroke="#707070" stroke-width="1"/>
    </g>
    <g id="S">
      <path id="Path_16" data-name="Path 16" d="M96.258,105.017V81.535h10.189v23.482" fill="none" stroke="#707070" stroke-width="1"/>
      <path id="Path_17" data-name="Path 17" d="M98.867,81.535V105" fill="none" stroke="#707070" stroke-width="1"/>
      <path id="Path_18" data-name="Path 18" d="M101.352,81.6V104.97" fill="none" stroke="#707070" stroke-width="1"/>
      <path id="Path_19" data-name="Path 19" d="M103.911,81.535V105" fill="none" stroke="#707070" stroke-width="1"/>
      <path id="Path_20" data-name="Path 20" d="M95.691,76.519H107.06" fill="none" stroke="#707070" stroke-width="1"/>
      <path id="Path_21" data-name="Path 21" d="M95.691,79.027H107.06" fill="none" stroke="#707070" stroke-width="1"/>
      <path id="Path_22" data-name="Path 22" d="M132.078,89.223c0-3.224-2.463-8.078-7.318-7.933s-8.259,2.608-8.114,8.549,6.629,6.847,7.933,6.919" fill="none" stroke="#707070" stroke-width="1"/>
      <path id="Path_23" data-name="Path 23" d="M129.47,89.187a5.271,5.271,0,0,0-5.216-5.47,5.215,5.215,0,0,0-4.927,6.847c1.051,3.876,4.818,3.405,6.195,3.912a2.634,2.634,0,0,1,0,4.79c-2.665,1.407-4.115-1.516-4.021-3.232" fill="none" stroke="#707070" stroke-width="1"/>
      <path id="Path_24" data-name="Path 24" d="M126.9,89.4c.681-1.982-1.241-3.342-3.069-3.092a2.78,2.78,0,0,0-1.641,4.359c1.192,1.758,4.063.594,5.734,2.406s2.328,4.172,1.063,6.391a5.328,5.328,0,0,1-6.281,2.5c-2.452-.781-3.656-3.766-3.656-5.219" fill="none" stroke="#707070" stroke-width="1"/>
      <path id="Path_25" data-name="Path 25" d="M116.641,96.758c-.338,4.407,3.1,8.046,8.176,7.771a7.707,7.707,0,0,0,7.312-8.17c-.1-3.6-3.776-7.312-7.827-7.346" fill="none" stroke="#707070" stroke-width="1"/>
      <g id="Ellipse_1" data-name="Ellipse 1" transform="translate(123 88)" fill="#fff" stroke="#707070" stroke-width="1">
        <circle cx="1" cy="1" r="1" stroke="none"/>
        <circle cx="1" cy="1" r="0.5" fill="none"/>
      </g>
      <g id="Ellipse_2" data-name="Ellipse 2" transform="translate(123 96)" fill="#fff" stroke="#707070" stroke-width="1">
        <circle cx="1" cy="1" r="1" stroke="none"/>
        <circle cx="1" cy="1" r="0.5" fill="none"/>
      </g>
    </g>
    <g id="T">
      <path id="Path_26" data-name="Path 26" d="M142.221,75.968V92.892A11.692,11.692,0,0,0,147.1,102.3c3.484,2.669,9.063,2.128,9.063,2.128" fill="none" stroke="#707070" stroke-width="1"/>
      <path id="Path_27" data-name="Path 27" d="M144.727,75.968v17.37s.412,4.523,3.261,6.522a12.119,12.119,0,0,0,8.136,1.922" fill="none" stroke="#707070" stroke-width="1"/>
      <path id="Path_28" data-name="Path 28" d="M147.268,75.968V93.544c.515,1.751.635,3.364,2.849,4.772s4.119,1.1,6.007,1.03" fill="none" stroke="#707070" stroke-width="1"/>
      <path id="Path_29" data-name="Path 29" d="M149.739,75.968V92.789a3.609,3.609,0,0,0,1.888,3.5c1.6.79,3.055.378,4.5.378" fill="none" stroke="#707070" stroke-width="1"/>
      <path id="Path_30" data-name="Path 30" d="M152.348,75.968s-.1,13.388-.137,16.272,2.54,1.922,3.913,1.957" fill="none" stroke="#707070" stroke-width="1"/>
      <path id="Path_31" data-name="Path 31" d="M152.52,81.495h3.6" fill="none" stroke="#707070" stroke-width="1"/>
      <path id="Path_32" data-name="Path 32" d="M152.52,84.173h3.6" fill="none" stroke="#707070" stroke-width="1"/>
      <path id="Path_33" data-name="Path 33" d="M152.383,86.781h3.776" fill="none" stroke="#707070" stroke-width="1"/>
      <path id="Path_34" data-name="Path 34" d="M152.211,89.219h3.914" fill="none" stroke="#707070" stroke-width="1"/>
      <path id="Path_35" data-name="Path 35" d="M152.383,91.622h3.742" fill="none" stroke="#707070" stroke-width="1"/>
    </g>
    <g id="A">
      <path id="Path_36" data-name="Path 36" d="M189.114,105.01V92.549c-.034-1.957-2.025-11.672-12.083-11.26s-11.706,8.96-11.363,13.319,5.321,10.642,13.319,9.955" fill="none" stroke="#707070" stroke-width="1"/>
      <path id="Path_37" data-name="Path 37" d="M186.573,105.01V92.171c0-3.158-3.5-8.548-9.166-8.445a9.092,9.092,0,0,0-9.2,8.754c-.172,4.36,2.918,9.818,10.745,9.646" fill="none" stroke="#707070" stroke-width="1"/>
      <path id="Path_38" data-name="Path 38" d="M184,105.01c.034-.137,0-12.53,0-12.53.1-3.6-3.536-6.342-6.9-6.213s-6.625,3.3-6.385,6.763,2.506,7.072,8.17,6.419" fill="none" stroke="#707070" stroke-width="1"/>
      <path id="Path_39" data-name="Path 39" d="M181.493,105.01l-.137-12.564a3.811,3.811,0,0,0-4.566-3.57,4.521,4.521,0,0,0-3.6,4.428c.172,2.025,1.991,4.291,5.9,3.6" fill="none" stroke="#707070" stroke-width="1"/>
      <path id="Path_40" data-name="Path 40" d="M179.158,105.01V92.823c-.1-1.3-1.236-1.51-1.991-1.51a1.409,1.409,0,0,0-1.407,1.51,1.777,1.777,0,0,0,1.407,1.888,1.739,1.739,0,0,0,1.991-1.407" fill="none" stroke="#707070" stroke-width="1"/>
    </g>
    <g id="C">
      <path id="Path_41" data-name="Path 41" d="M242.94,83.314c-2.094-3.227-6.454-8.17-14.727-7.037s-12.152,8.96-11.912,14.486,3.261,11.912,11.328,13.525,13.354-2.884,15.31-6.66" fill="none" stroke="#707070" stroke-width="1"/>
      <path id="Path_42" data-name="Path 42" d="M240.729,84.578c-2.092-3.879-5.21-5.743-10.953-5.781s-10.915,5.771-10.915,11.751,5.21,11.523,10.762,11.6,8.747-2.054,11.1-5.819" fill="none" stroke="#707070" stroke-width="1"/>
      <path id="Path_43" data-name="Path 43" d="M238.523,85.833c-1.217-3.575-6.541-5.286-10.877-4.031s-6.693,6.047-6.2,9.66a9.112,9.112,0,0,0,6.959,7.948c4.259,1.093,8.747-1.787,10.116-4.3" fill="none" stroke="#707070" stroke-width="1"/>
      <path id="Path_44" data-name="Path 44" d="M236.318,87.126c-1.217-1.863-4.155-4.031-7.3-3.08s-4.811,2.681-4.982,6.123a6.656,6.656,0,0,0,5.438,6.769,6.185,6.185,0,0,0,6.845-3.156" fill="none" stroke="#707070" stroke-width="1"/>
      <path id="Path_45" data-name="Path 45" d="M234.15,88.381h0c-3.233-4.526-7.834-1.024-7.758,2.092s4.373,6.085,7.758,2.092" fill="none" stroke="#707070" stroke-width="1"/>
      <path id="Path_46" data-name="Path 46" d="M231.906,89.674c-.761-1.255-3-.8-2.928.761a1.569,1.569,0,0,0,2.928.8" fill="none" stroke="#707070" stroke-width="1"/>
    </g>
    <g id="A-2" data-name="A" transform="translate(86 0.024)">
      <path id="Path_36-2" data-name="Path 36" d="M189.114,105.01V92.549c-.034-1.957-2.025-11.672-12.083-11.26s-11.706,8.96-11.363,13.319,5.321,10.642,13.319,9.955" fill="none" stroke="#707070" stroke-width="1"/>
      <path id="Path_37-2" data-name="Path 37" d="M186.573,105.01V92.171c0-3.158-3.5-8.548-9.166-8.445a9.092,9.092,0,0,0-9.2,8.754c-.172,4.36,2.918,9.818,10.745,9.646" fill="none" stroke="#707070" stroke-width="1"/>
      <path id="Path_38-2" data-name="Path 38" d="M184,105.01c.034-.137,0-12.53,0-12.53.1-3.6-3.536-6.342-6.9-6.213s-6.625,3.3-6.385,6.763,2.506,7.072,8.17,6.419" fill="none" stroke="#707070" stroke-width="1"/>
      <path id="Path_39-2" data-name="Path 39" d="M181.493,105.01l-.137-12.564a3.811,3.811,0,0,0-4.566-3.57,4.521,4.521,0,0,0-3.6,4.428c.172,2.025,1.991,4.291,5.9,3.6" fill="none" stroke="#707070" stroke-width="1"/>
      <path id="Path_40-2" data-name="Path 40" d="M179.158,105.01V92.823c-.1-1.3-1.236-1.51-1.991-1.51a1.409,1.409,0,0,0-1.407,1.51,1.777,1.777,0,0,0,1.407,1.888,1.739,1.739,0,0,0,1.991-1.407" fill="none" stroke="#707070" stroke-width="1"/>
    </g>
    <g id="M">
      <path id="Path_47" data-name="Path 47" d="M285.658,105.033V91.956c.049-4.845,3.955-10.234,11.025-10.679s11.915,5.834,11.766,10.679v13.077" fill="none" stroke="#707070" stroke-width="1"/>
      <path id="Path_48" data-name="Path 48" d="M288.229,105.033V91.956c0-.005,0-.01,0-.088.147-4.917,4.7-8.023,8.653-8.157S305.994,87,305.918,91.9V105" fill="none" stroke="#707070" stroke-width="1"/>
      <path id="Path_49" data-name="Path 49" d="M290.715,105.033V92.194c-.135-2.88,3.021-5.8,6.233-5.828s6.526,2.565,6.458,5.828v12.839" fill="none" stroke="#707070" stroke-width="1"/>
      <path id="Path_50" data-name="Path 50" d="M293.325,105.033V92.667c-.18-3.42,3.2-3.848,3.713-3.848a3.589,3.589,0,0,1,3.848,3.668v12.547" fill="none" stroke="#707070" stroke-width="1"/>
      <path id="Path_51" data-name="Path 51" d="M295.845,105.033V92.509c-.022-.7,1.643-2.453,2.52,0v12.524" fill="none" stroke="#707070" stroke-width="1"/>
      <path id="Path_52" data-name="Path 52" d="M303.407,83.247a11.493,11.493,0,0,1,7.487-2.016c2.434.266,10.078,2.092,10.306,11.219V105" fill="none" stroke="#707070" stroke-width="1"/>
      <path id="Path_53" data-name="Path 53" d="M305.57,84.921a10.163,10.163,0,0,1,4.373-1.217c2.13.038,9.013,1.711,8.595,9.431v11.827" fill="none" stroke="#707070" stroke-width="1"/>
      <path id="Path_54" data-name="Path 54" d="M307.091,86.974a8.3,8.3,0,0,1,3.182-.652c1.2.161,6.364.555,5.836,8.08l-.047,10.6" fill="none" stroke="#707070" stroke-width="1"/>
      <path id="Path_55" data-name="Path 55" d="M313.548,104.962V94.693c.026-3.222-.046-3.552-1.4-4.964s-4.014-.687-4.014-.687" fill="none" stroke="#707070" stroke-width="1"/>
      <path id="Path_56" data-name="Path 56" d="M310.96,104.962V93.848c.185-1.8-.139-2.106-.766-2.456s-1.716.211-1.769,1.479" fill="none" stroke="#707070" stroke-width="1"/>
    </g>
    <g id="E">
      <path id="Path_57" data-name="Path 57" d="M351.142,101.439c-5.458,5.355-12.083,3.57-16.306,0s-5.046-11.328-.618-16.306a11.645,11.645,0,0,1,14.864-2.3,11.207,11.207,0,0,1,5.012,6.316h-12.7" fill="none" stroke="#707070" stroke-width="1"/>
      <path id="Path_58" data-name="Path 58" d="M351.142,89.15a8.877,8.877,0,0,0-8.479-5.286c-4.36.275-8.376,2.781-8.891,8.994s8.41,13.113,15.54,6.8" fill="none" stroke="#707070" stroke-width="1"/>
      <path id="Path_59" data-name="Path 59" d="M348.293,89.081c-5.287-6.351-12.015-.858-12.049,3.776s5.7,9.578,11.328,5.046" fill="none" stroke="#707070" stroke-width="1"/>
      <path id="Path_60" data-name="Path 60" d="M344.86,89.219c-4.909-1.545-5.87,2.643-5.87,3.639s1.03,5.767,6.248,3.879" fill="none" stroke="#707070" stroke-width="1"/>
      <path id="Path_61" data-name="Path 61" d="M354.712,96.805l-13.491-.137" fill="none" stroke="#707070" stroke-width="1"/>
      <path id="Path_62" data-name="Path 62" d="M355.262,94.231H339.23" fill="none" stroke="#707070" stroke-width="1"/>
      <path id="Path_63" data-name="Path 63" d="M355.262,91.587H339.333" fill="none" stroke="#707070" stroke-width="1"/>
    </g>
    <g id="R-2" data-name="R" transform="translate(291.551 -0.097)">
      <path id="Path_11-2" data-name="Path 11" d="M86.832,81.616s-6.267-.389-9.817,2.355-4.021,7.571-4.021,7.571l-.145,13.44" fill="none" stroke="#707070" stroke-width="1"/>
      <path id="Path_12-2" data-name="Path 12" d="M86.832,84.224s-4.8-.589-7.716,1.521-3.188,4.311-3.659,6.195v13.041" fill="none" stroke="#707070" stroke-width="1"/>
      <path id="Path_13-2" data-name="Path 13" d="M86.832,86.687s-3.9-.507-6.158.978-2.681,4.963-2.681,4.963v12.353" fill="none" stroke="#707070" stroke-width="1"/>
      <path id="Path_14-2" data-name="Path 14" d="M86.832,89.187s-3.84-.217-5,.688a5.268,5.268,0,0,0-1.413,3.043v12.1" fill="none" stroke="#707070" stroke-width="1"/>
      <path id="Path_15-2" data-name="Path 15" d="M86.832,91.686s-2.572-.435-3.441.507-.362,12.788-.362,12.788" fill="none" stroke="#707070" stroke-width="1"/>
    </g>
    <g id="O">
      <g id="Ellipse_3" data-name="Ellipse 3" transform="translate(386.8 80.8)" fill="none" stroke="#707070" stroke-width="1">
        <circle cx="12.25" cy="12.25" r="12.25" stroke="none"/>
        <circle cx="12.25" cy="12.25" r="11.75" fill="none"/>
      </g>
      <g id="Ellipse_4" data-name="Ellipse 4" transform="translate(389.3 83.2)" fill="none" stroke="#707070" stroke-width="1">
        <circle cx="9.75" cy="9.75" r="9.75" stroke="none"/>
        <circle cx="9.75" cy="9.75" r="9.25" fill="none"/>
      </g>
      <g id="Ellipse_5" data-name="Ellipse 5" transform="translate(392 85.8)" fill="none" stroke="#707070" stroke-width="1">
        <circle cx="7.125" cy="7.125" r="7.125" stroke="none"/>
        <circle cx="7.125" cy="7.125" r="6.625" fill="none"/>
      </g>
      <g id="Ellipse_6" data-name="Ellipse 6" transform="translate(394.4 88.4)" fill="none" stroke="#707070" stroke-width="1">
        <circle cx="4.625" cy="4.625" r="4.625" stroke="none"/>
        <circle cx="4.625" cy="4.625" r="4.125" fill="none"/>
      </g>
      <g id="Ellipse_7" data-name="Ellipse 7" transform="translate(396.9 90.8)" fill="none" stroke="#707070" stroke-width="1">
        <circle cx="2.125" cy="2.125" r="2.125" stroke="none"/>
        <circle cx="2.125" cy="2.125" r="1.625" fill="none"/>
      </g>
    </g>
  </g>
</svg>
