<svg xmlns="http://www.w3.org/2000/svg" width="407.836" height="237.771" viewBox="0 0 407.836 237.771">
  <g id="Magnamosis" transform="translate(-959.89 -16.997)">
    <g id="Magnamosis-2" data-name="Magnamosis" transform="translate(960 155.79)">
      <path id="Path_20" data-name="Path 20" d="M1324.818,113.037V81.3s38.829-10.58,76.6-10.58,74.5,10.58,74.5,10.58v31.739s-36.721-9.874-74.5-9.874S1324.818,113.037,1324.818,113.037Z" transform="translate(-1196.208 -70.719)" fill="#707070" stroke="#707070" stroke-width="2"/>
      <path id="Path_21" data-name="Path 21" d="M1324.818,113.037V81.3s38.829-10.58,76.6-10.58,74.5,10.58,74.5,10.58v31.739s-36.721-9.874-74.5-9.874S1324.818,113.037,1324.818,113.037Z" transform="translate(-1196.208 -19.116)" fill="#707070" stroke="#707070" stroke-width="2"/>
      <path id="Path_22" data-name="Path 22" d="M1064.687,110.657s53.939-6,85.74,0,25.963,18.548,40.807,21.849,39.487-9.153,77.964-9.153,61.1,10.606,76.811,9.153,8.226-15.854,39.852-21.849,86.443,0,86.443,0" transform="translate(-1064.687 -89.498)" fill="none" stroke="#707070" stroke-width="2"/>
      <path id="Path_23" data-name="Path 23" d="M1075.95,171.537s57.439.543,106.5-3.8,52.033-13.564,89.741-13.564,53.926,9.223,104.337,13.564,97.309,3.8,97.309,3.8" transform="translate(-1070.382 -112.766)" fill="none" stroke="#707070" stroke-width="2"/>
      <path id="Path_24" data-name="Path 24" d="M1075.95,171.537s57.439.543,106.5-3.8,52.033-13.564,89.741-13.564,53.926,9.223,104.337,13.564,97.309,3.8,97.309,3.8" transform="translate(-1071.085 -110.611)" fill="none" stroke="#707070" stroke-width="2"/>
      <path id="Path_25" data-name="Path 25" d="M1064.687,212.609s62.292,2.984,94.228-4.34,23.886-20.011,33.413-24.462,37.411-10.442,76.5-10.566,66.145,5.661,77.217,11.463,3.708,18.682,33.982,27.9,89.741,7.6,89.741,7.6" transform="translate(-1064.687 -122.371)" fill="none" stroke="#707070" stroke-width="2"/>
    </g>
    <g id="Magnamosis_2" data-name="Magnamosis 2" transform="translate(1086.806 17.998)">
      <path id="Path_30" data-name="Path 30" d="M1662.875,139.4V164.14s14.332,16.694,75.246,17.584,78.5-20.7,78.5-20.7V139.4s-28.665,17.072-78.5,17.072S1662.875,139.4,1662.875,139.4Z" transform="translate(-1662.621 -92.235)" fill="#707070" stroke="#707070" stroke-width="2"/>
      <path id="Path_31" data-name="Path 31" d="M1662.643,144.008l1.146-3.556" transform="translate(-1662.643 -92.493)" fill="none" stroke="#707070" stroke-width="2"/>
      <path id="Path_32" data-name="Path 32" d="M1801.877,140.452l1.335,2.9" transform="translate(-1649.208 -92.493)" fill="none" stroke="#707070" stroke-width="2"/>
      <path id="Path_33" data-name="Path 33" d="M1662.643,108.667V130.6s23.433,17.362,75.518,16.783S1816,130.6,1816,130.6V104.559s-29.225,24.017-81.889,23.728S1662.643,108.667,1662.643,108.667Z" transform="translate(-1662.643 -83.728)" fill="#707070" stroke="#707070" stroke-width="2"/>
      <path id="Path_34" data-name="Path 34" d="M1662.643,109.214V128s22.9,14.87,73.814,14.374S1812.538,128,1812.538,128V109.214s-28.566,17.051-80.041,16.8S1662.643,109.214,1662.643,109.214Z" transform="translate(-1661.497 -80.757)" fill="none" stroke="#fff" stroke-width="2"/>
      <path id="Path_35" data-name="Path 35" d="M1662.643,104.559v18s22.9,14.93,73.814,14.49,76.081-18.427,76.081-18.427V104.559s-28.28,14.286-79.755,14.067S1662.643,104.559,1662.643,104.559Z" transform="translate(-1659.869 -50.34)" fill="none" stroke="#fff" stroke-width="2"/>
      <path id="Path_26" data-name="Path 26" d="M1662.875,99.044c0-10.851,34.229-22.425,72.655-22.036s80.405,9.4,80.405,20.255-41.979,23.538-80.405,23.149S1662.875,109.895,1662.875,99.044Z" transform="translate(-1662.621 -76.998)" fill="#707070" stroke="#707070" stroke-width="2"/>
      <path id="Path_27" data-name="Path 27" d="M1662.875,89.09c0-5.952,17.62-12.3,37.4-12.086s41.39,5.158,41.39,11.11-21.609,12.91-41.39,12.7S1662.875,95.041,1662.875,89.09Z" transform="translate(-1624.84 -65.637)" fill="#707070" stroke="#fff" stroke-width="2"/>
      <path id="Path_28" data-name="Path 28" d="M1704.1,115.782s13.318-5.787,27.69-5.787,29.8,5.787,29.8,5.787" transform="translate(-1656.913 -85.055)" fill="none" stroke="#fff" stroke-width="2"/>
    </g>
  </g>
</svg>
