<svg xmlns="http://www.w3.org/2000/svg" width="447.619" height="194.509" viewBox="0 0 447.619 194.509">
  <g id="Thermoforming_Image" data-name="Thermoforming Image" transform="translate(-803 -891)">
    <g id="Rectangle_8" data-name="Rectangle 8" transform="translate(880.305 891)" fill="#fff" stroke="#707070" stroke-width="2">
      <rect width="261.838" height="89.773" stroke="none"/>
      <rect x="1" y="1" width="259.838" height="87.773" fill="none"/>
    </g>
    <g id="Rectangle_9" data-name="Rectangle 9" transform="translate(880.305 998.229)" fill="#fff" stroke="#707070" stroke-width="2">
      <rect width="261.838" height="87.279" stroke="none"/>
      <rect x="1" y="1" width="259.838" height="85.279" fill="none"/>
    </g>
    <g id="Hing" transform="translate(906.489 979.526)">
      <g id="Rectangle_10" data-name="Rectangle 10" transform="translate(0 4.987)" fill="#fff" stroke="#707070" stroke-width="2">
        <rect width="46.133" height="9.975" stroke="none"/>
        <rect x="1" y="1" width="44.133" height="7.975" fill="none"/>
      </g>
      <g id="Rectangle_11" data-name="Rectangle 11" transform="translate(1.247 0)" fill="#fff" stroke="#707070" stroke-width="2">
        <rect width="43.64" height="4.987" stroke="none"/>
        <rect x="1" y="1" width="41.64" height="2.987" fill="none"/>
      </g>
      <g id="Rectangle_12" data-name="Rectangle 12" transform="translate(1.247 14.962)" fill="#fff" stroke="#707070" stroke-width="2">
        <rect width="43.64" height="4.987" stroke="none"/>
        <rect x="1" y="1" width="41.64" height="2.987" fill="none"/>
      </g>
    </g>
    <g id="Hing-2" data-name="Hing" transform="translate(1068.579 979.526)">
      <g id="Rectangle_10-2" data-name="Rectangle 10" transform="translate(0 4.987)" fill="#fff" stroke="#707070" stroke-width="2">
        <rect width="46.133" height="9.975" stroke="none"/>
        <rect x="1" y="1" width="44.133" height="7.975" fill="none"/>
      </g>
      <g id="Rectangle_11-2" data-name="Rectangle 11" transform="translate(1.247 0)" fill="#fff" stroke="#707070" stroke-width="2">
        <rect width="43.64" height="4.987" stroke="none"/>
        <rect x="1" y="1" width="41.64" height="2.987" fill="none"/>
      </g>
      <g id="Rectangle_12-2" data-name="Rectangle 12" transform="translate(1.247 14.962)" fill="#fff" stroke="#707070" stroke-width="2">
        <rect width="43.64" height="4.987" stroke="none"/>
        <rect x="1" y="1" width="41.64" height="2.987" fill="none"/>
      </g>
    </g>
    <path id="Path_114" data-name="Path 114" d="M848,915.541h38.691s3.168-19.784,16.724-20.049S919.1,915.541,919.1,915.541h188.362v14.5H919.1s-1.927,20.338-17.137,20.206-15.27-20.206-15.27-20.206H848Z" transform="translate(33.673 14.523)" fill="none" stroke="#707070" stroke-width="2"/>
    <path id="Path_115" data-name="Path 115" d="M848,915.541h38.691s3.168-19.784,16.724-20.049S919.1,915.541,919.1,915.541h188.362v14.5H919.1s-1.927,20.338-17.137,20.206-15.27-20.206-15.27-20.206H848Z" transform="translate(33.869 121.408)" fill="none" stroke="#707070" stroke-width="2"/>
    <g id="Rectangle_13" data-name="Rectangle 13" transform="translate(803 1039.375)" fill="#fff" stroke="#707070" stroke-width="2">
      <rect width="447.619" height="9.975" stroke="none"/>
      <rect x="1" y="1" width="445.619" height="7.975" fill="none"/>
    </g>
  </g>
</svg>
